<svg width="21" height="20" viewBox="0 0 21 20" fill="none" xmlns="http://www.w3.org/2000/svg">
<path d="M10.884 7C10.0884 7 9.32529 7.31607 8.76268 7.87868C8.20007 8.44129 7.884 9.20435 7.884 10C7.884 10.7956 8.20007 11.5587 8.76268 12.1213C9.32529 12.6839 10.0884 13 10.884 13C11.6797 13 12.4427 12.6839 13.0053 12.1213C13.5679 11.5587 13.884 10.7956 13.884 10C13.884 9.20435 13.5679 8.44129 13.0053 7.87868C12.4427 7.31607 11.6797 7 10.884 7ZM10.884 5C12.2101 5 13.4819 5.52678 14.4195 6.46447C15.3572 7.40215 15.884 8.67392 15.884 10C15.884 11.3261 15.3572 12.5979 14.4195 13.5355C13.4819 14.4732 12.2101 15 10.884 15C9.55792 15 8.28615 14.4732 7.34847 13.5355C6.41079 12.5979 5.884 11.3261 5.884 10C5.884 8.67392 6.41079 7.40215 7.34847 6.46447C8.28615 5.52678 9.55792 5 10.884 5ZM17.384 4.75C17.384 5.08152 17.2523 5.39946 17.0179 5.63388C16.7835 5.8683 16.4655 6 16.134 6C15.8025 6 15.4845 5.8683 15.2501 5.63388C15.0157 5.39946 14.884 5.08152 14.884 4.75C14.884 4.41848 15.0157 4.10054 15.2501 3.86612C15.4845 3.6317 15.8025 3.5 16.134 3.5C16.4655 3.5 16.7835 3.6317 17.0179 3.86612C17.2523 4.10054 17.384 4.41848 17.384 4.75ZM10.884 2C8.41 2 8.006 2.007 6.855 2.058C6.071 2.095 5.545 2.2 5.057 2.39C4.64862 2.53994 4.27942 2.78026 3.977 3.093C3.66401 3.3954 3.42336 3.76458 3.273 4.173C3.083 4.663 2.978 5.188 2.942 5.971C2.89 7.075 2.883 7.461 2.883 10C2.883 12.475 2.89 12.878 2.941 14.029C2.978 14.812 3.083 15.339 3.272 15.826C3.442 16.261 3.642 16.574 3.974 16.906C4.311 17.242 4.624 17.443 5.054 17.609C5.548 17.8 6.074 17.906 6.854 17.942C7.958 17.994 8.344 18 10.883 18C13.358 18 13.761 17.993 14.912 17.942C15.694 17.905 16.22 17.8 16.709 17.611C17.117 17.4603 17.4861 17.2201 17.789 16.908C18.126 16.572 18.327 16.259 18.493 15.828C18.683 15.336 18.789 14.81 18.825 14.028C18.877 12.925 18.883 12.538 18.883 10C18.883 7.526 18.876 7.122 18.825 5.971C18.788 5.189 18.682 4.661 18.493 4.173C18.3423 3.76502 18.1021 3.39598 17.79 3.093C17.4877 2.77985 17.1185 2.53917 16.71 2.389C16.22 2.199 15.694 2.094 14.912 2.058C13.809 2.006 13.424 2 10.884 2ZM10.884 0C13.601 0 13.94 0.00999994 15.007 0.0599999C16.071 0.11 16.797 0.277 17.434 0.525C18.094 0.779 18.65 1.123 19.206 1.678C19.7145 2.1779 20.108 2.78259 20.359 3.45C20.606 4.087 20.774 4.813 20.824 5.878C20.871 6.944 20.884 7.283 20.884 10C20.884 12.717 20.874 13.056 20.824 14.122C20.774 15.187 20.606 15.912 20.359 16.55C20.1087 17.2178 19.7151 17.8226 19.206 18.322C18.706 18.8303 18.1013 19.2238 17.434 19.475C16.797 19.722 16.071 19.89 15.007 19.94C13.94 19.987 13.601 20 10.884 20C8.167 20 7.828 19.99 6.761 19.94C5.697 19.89 4.972 19.722 4.334 19.475C3.66633 19.2245 3.06153 18.8309 2.562 18.322C2.05343 17.8222 1.65996 17.2175 1.409 16.55C1.161 15.913 0.994003 15.187 0.944003 14.122C0.896003 13.056 0.884003 12.717 0.884003 10C0.884003 7.283 0.894003 6.944 0.944003 5.878C0.994003 4.812 1.161 4.088 1.409 3.45C1.65924 2.78218 2.05281 2.17732 2.562 1.678C3.06167 1.16923 3.66643 0.775729 4.334 0.525C4.971 0.277 5.696 0.11 6.761 0.0599999C7.828 0.0129999 8.167 0 10.884 0Z" fill="black"/>
</svg>
