<svg width="50" height="50" viewBox="0 0 50 50" fill="none" xmlns="http://www.w3.org/2000/svg">
<path d="M46.1111 50L28.6111 32.5C27.2222 33.6111 25.625 34.4907 23.8194 35.1389C22.0139 35.787 20.0926 36.1111 18.0556 36.1111C13.0093 36.1111 8.73889 34.363 5.24444 30.8667C1.75 27.3704 0.00185185 23.1 0 18.0556C0 13.0093 1.74815 8.73889 5.24444 5.24444C8.74074 1.75 13.0111 0.00185185 18.0556 0C23.1019 0 27.3722 1.74815 30.8667 5.24444C34.3611 8.74074 36.1093 13.0111 36.1111 18.0556C36.1111 20.0926 35.787 22.0139 35.1389 23.8194C34.4907 25.625 33.6111 27.2222 32.5 28.6111L50 46.1111L46.1111 50ZM18.0556 30.5556C21.5278 30.5556 24.4796 29.3398 26.9111 26.9083C29.3426 24.4769 30.5574 21.5259 30.5556 18.0556C30.5556 14.5833 29.3398 11.6315 26.9083 9.2C24.4769 6.76852 21.5259 5.5537 18.0556 5.55556C14.5833 5.55556 11.6315 6.7713 9.2 9.20278C6.76852 11.6343 5.5537 14.5852 5.55556 18.0556C5.55556 21.5278 6.7713 24.4796 9.20278 26.9111C11.6343 29.3426 14.5852 30.5574 18.0556 30.5556Z" fill="black"/>
</svg>
