<svg width="21" height="16" viewBox="0 0 21 16" fill="none" xmlns="http://www.w3.org/2000/svg">
<path d="M11.128 0.000488281C11.662 0.00348828 12.998 0.0164882 14.418 0.0734882L14.922 0.0954881C16.351 0.162488 17.779 0.278488 18.488 0.475488C19.433 0.741488 20.175 1.51549 20.426 2.49749C20.826 4.05749 20.876 7.09949 20.882 7.83649L20.883 7.98849V8.16249C20.876 8.89949 20.826 11.9425 20.426 13.5015C20.172 14.4865 19.429 15.2615 18.488 15.5235C17.779 15.7205 16.351 15.8365 14.922 15.9035L14.418 15.9265C12.998 15.9825 11.662 15.9965 11.128 15.9985L10.893 15.9995H10.638C9.508 15.9925 4.782 15.9415 3.278 15.5235C2.334 15.2575 1.591 14.4835 1.34 13.5015C0.940003 11.9415 0.890003 8.89949 0.884003 8.16249V7.83649C0.890003 7.09949 0.940003 4.05649 1.34 2.49749C1.594 1.51249 2.337 0.737488 3.279 0.476488C4.782 0.0574881 9.509 0.00648828 10.639 0.000488281H11.128ZM8.883 4.50049V11.5005L14.883 8.00049L8.883 4.50049Z" fill="black"/>
</svg>
