<svg width="21" height="18" viewBox="0 0 21 18" fill="none" xmlns="http://www.w3.org/2000/svg">
<path d="M20.884 2.68071C20.1209 3.01831 19.3116 3.24008 18.483 3.33871C19.3561 2.81584 20.0093 1.99344 20.321 1.02471C19.501 1.51271 18.602 1.85471 17.666 2.03971C17.0366 1.36629 16.2024 0.91967 15.293 0.769292C14.3836 0.618913 13.4499 0.773198 12.6373 1.20816C11.8246 1.64312 11.1784 2.33439 10.7991 3.1745C10.4198 4.01461 10.3287 4.95649 10.54 5.85371C8.87694 5.7705 7.24997 5.33843 5.76474 4.58557C4.27951 3.83271 2.96924 2.77588 1.919 1.48371C1.54729 2.12216 1.35196 2.84793 1.353 3.58671C1.353 5.03671 2.092 6.31771 3.213 7.06771C2.54901 7.04676 1.89965 6.86745 1.319 6.54471V6.59571C1.31897 7.56158 1.65303 8.49773 2.26453 9.24538C2.87603 9.99303 3.72731 10.5061 4.674 10.6977C4.05764 10.8649 3.41129 10.8895 2.784 10.7697C3.05092 11.6011 3.57121 12.3282 4.272 12.8491C4.97278 13.37 5.81896 13.6587 6.692 13.6747C5.82436 14.3562 4.83089 14.8599 3.76841 15.1571C2.70593 15.4543 1.59529 15.5391 0.5 15.4067C2.41172 16.6361 4.6371 17.2888 6.91 17.2867C14.604 17.2867 18.81 10.9137 18.81 5.38671C18.81 5.20671 18.806 5.02471 18.798 4.84571C19.6164 4.25407 20.3228 3.52027 20.884 2.68071Z" fill="black"/>
</svg>
